<?xml version="1.0" encoding="UTF-8"?> <svg xmlns="http://www.w3.org/2000/svg" width="67" height="15" viewBox="0 0 67 15" fill="none"> <path d="M19.9674 0.630104V14.2213C19.9674 14.3993 19.8194 14.5477 19.6123 14.5477H17.9254C17.7479 14.5477 17.5703 14.3993 17.5703 14.2213V0.630104C17.5999 0.452034 17.7479 0.30365 17.955 0.30365H19.6419C19.8194 0.30365 19.9674 0.452034 19.9674 0.630104Z" fill="white"></path> <path d="M24.4067 5.05237H22.7199C22.5423 5.05237 22.3647 5.17107 22.3647 5.34914V14.2516C22.3647 14.4 22.5127 14.5484 22.7199 14.5484H24.4067C24.5843 14.5484 24.7618 14.4297 24.7618 14.2516V5.34914C24.7618 5.17107 24.6138 5.05237 24.4067 5.05237Z" fill="white"></path> <path d="M24.1702 1.49146H22.9864C22.6609 1.49146 22.3945 1.75854 22.3945 2.08494V3.27197C22.3945 3.59838 22.6609 3.86546 22.9864 3.86546H24.1702C24.4957 3.86546 24.762 3.59838 24.762 3.27197V2.08494C24.762 1.75854 24.4957 1.49146 24.1702 1.49146Z" fill="white"></path> <path d="M42.7402 9.05777V14.1619C42.7402 14.3696 42.5905 14.518 42.3812 14.518H40.7961C40.5868 14.518 40.4372 14.3696 40.4372 14.1619V9.35454C40.4372 8.5533 40.2578 7.93012 39.9288 7.54434C39.5999 7.12893 39.0915 6.95086 38.4335 6.95086C37.7158 6.95086 37.1476 7.18825 36.7289 7.66304C36.3103 8.13788 36.1009 8.82038 36.1009 9.71064V14.1916C36.1009 14.3993 35.9514 14.5477 35.7421 14.5477H34.157C33.9477 14.5477 33.7982 14.3993 33.7982 14.1916V9.35454C33.7982 8.5533 33.6188 7.93012 33.2898 7.54434C32.9608 7.12893 32.4524 6.95086 31.7945 6.95086C31.0768 6.95086 30.5086 7.18825 30.0899 7.66304C29.6712 8.13788 29.4619 8.82038 29.4619 9.71064V14.1916C29.4619 14.3993 29.3123 14.5477 29.103 14.5477H27.518C27.3087 14.5477 27.1592 14.3993 27.1592 14.1916V5.34841C27.1592 5.1407 27.3087 4.99232 27.518 4.99232H28.9834C29.1628 4.99232 29.3423 5.1407 29.3423 5.34841V6.09028C29.6712 5.73419 30.0899 5.43742 30.5385 5.22971C31.0768 4.99232 31.645 4.90326 32.3029 4.90326C32.9908 4.90326 33.6188 5.05164 34.157 5.31873C34.5757 5.52643 34.9047 5.79352 35.2037 6.14961C35.3234 6.29799 35.5327 6.29799 35.6523 6.1793C35.9813 5.8232 36.4 5.55612 36.8485 5.34841C37.4467 5.08133 38.1345 4.93295 38.8522 4.93295C40.0186 4.93295 40.9755 5.28904 41.6633 5.97159C42.3812 6.62445 42.7402 7.66304 42.7402 9.05777Z" fill="white"></path> <path d="M53.114 7.16544C52.6984 6.45105 52.1341 5.88553 51.392 5.49861C50.6494 5.11164 49.8182 4.90326 48.8978 4.90326C47.9178 4.90326 47.0566 5.11164 46.3145 5.49861C45.5719 5.91532 44.978 6.48084 44.5624 7.22495C44.1468 7.96912 43.939 8.83226 43.939 9.78476C43.939 10.767 44.1468 11.6302 44.5919 12.3743C45.0076 13.1185 45.6014 13.7138 46.3736 14.1007C47.1162 14.5174 47.9769 14.696 48.9273 14.696C50.0855 14.696 51.065 14.4281 51.8667 13.8626C52.4906 13.4161 52.9653 12.8803 53.2923 12.2255C53.2923 12.2255 53.3218 12.1957 53.3218 12.166C53.3218 12.1362 53.3514 12.1065 53.3514 12.0767C53.3514 11.9279 53.2327 11.8088 53.0845 11.8088H51.2433C51.1541 11.8088 51.065 11.8683 51.0059 11.9576C50.5603 12.5827 49.9073 12.9101 48.9864 12.9101C48.2739 12.9101 47.6505 12.7018 47.1457 12.2553C46.6705 11.8386 46.4036 11.3028 46.3145 10.6182H53.3814C53.5892 10.6182 53.7675 10.4694 53.797 10.261C53.8266 10.0527 53.8266 9.81454 53.8266 9.54665C53.7375 8.71323 53.5296 7.87982 53.114 7.16544ZM46.4923 9.01086C46.3145 9.01086 46.1658 8.83226 46.1953 8.65372C46.344 8.11793 46.6114 7.64166 46.997 7.31425C47.5022 6.89754 48.0961 6.68921 48.7786 6.68921C49.5508 6.68921 50.1742 6.89754 50.709 7.34403C51.1541 7.70122 51.392 8.14771 51.4811 8.71323C51.5107 8.89183 51.3619 9.04064 51.1842 9.04064H46.4923V9.01086Z" fill="white"></path> <path d="M63.9548 14.0751L60.6992 9.96308C60.6396 9.87435 60.6396 9.72644 60.6992 9.60808L63.9548 5.49614C64.1045 5.31864 63.9548 5.05237 63.716 5.05237H61.7745C61.6849 5.05237 61.5953 5.11155 61.5357 5.17073L59.4746 7.53734C59.3549 7.71483 59.1161 7.71483 58.997 7.53734L56.9654 5.17073C56.9058 5.08196 56.8162 5.05237 56.7266 5.05237H54.7551C54.5162 5.05237 54.3671 5.31864 54.5163 5.49614L57.7424 9.63767C57.802 9.72644 57.802 9.87435 57.7424 9.99267L54.4867 14.1047C54.337 14.2822 54.4867 14.5484 54.7255 14.5484H56.667C56.7566 14.5484 56.8462 14.4892 56.9058 14.4301L58.9369 11.886C59.0566 11.7085 59.2954 11.7085 59.415 11.886L61.4757 14.4301C61.5357 14.5188 61.6253 14.5484 61.715 14.5484H63.6564C63.9548 14.5484 64.1045 14.2822 63.9548 14.0751Z" fill="white"></path> <path d="M10.1039 9.32558L6.0821 5.26008C5.96206 5.11169 5.75198 5.05237 5.57187 5.05237C5.39177 5.05237 5.18169 5.11169 5.06165 5.26008L1.03986 9.32558C0.679703 9.71131 0.709736 10.3049 1.12991 10.6313C2.4205 11.6699 4.01118 12.1744 5.57187 12.1744C7.13257 12.1744 8.72325 11.6699 10.0439 10.6609C10.464 10.3345 10.4941 9.71131 10.1039 9.32558Z" fill="#0AA461"></path> </svg> 